<?xml version="1.0" standalone="no"?>
<!DOCTYPE svg PUBLIC "-//W3C//DTD SVG 20010904//EN"
 "http://www.w3.org/TR/2001/REC-SVG-20010904/DTD/svg10.dtd">
<svg version="1.0" xmlns="http://www.w3.org/2000/svg"
 width="48.000000pt" height="48.000000pt" viewBox="0 0 48.000000 48.000000"
 preserveAspectRatio="xMidYMid meet">

<g transform="translate(0.000000,48.000000) scale(0.100000,-0.100000)"
fill="#000000" stroke="none">
<path d="M172 420 c-42 -26 -72 -76 -72 -121 0 -55 109 -249 140 -249 31 0
140 194 140 249 0 104 -120 174 -208 121z m102 -86 c31 -30 9 -84 -34 -84 -24
0 -50 26 -50 50 0 10 7 26 16 34 8 9 24 16 34 16 10 0 26 -7 34 -16z"/>
</g>
</svg>
